<?xml version="1.0" encoding="iso-8859-1"?>
<!-- Uploaded to: SVG Repo, www.svgrepo.com, Generator: SVG Repo Mixer Tools -->
<svg version="1.1" id="Layer_1" xmlns="http://www.w3.org/2000/svg" xmlns:xlink="http://www.w3.org/1999/xlink" 
	 viewBox="0 0 328.169 328.169" xml:space="preserve">
<g>
	<g>
		<rect x="173.682" y="132.754" style="fill:#BF534F;" width="132.754" height="21.395"/>
		<path style="fill:#FF6D68;" d="M173.682,0v132.754h132.754C306.436,59.436,246.999,0,173.682,0z"/>
	</g>
	<g>
		<path style="fill:#E0B03B;" d="M248.359,174.02v115.267c24.024-24.024,38.882-57.213,38.882-93.872V174.02H248.359z"/>
		<path style="fill:#FFC843;" d="M287.242,174.02H154.488l93.872,93.871C272.383,243.866,287.242,210.678,287.242,174.02z"/>
	</g>
	<g>
		<path style="fill:#005FAD;" d="M21.734,174.02v21.395c0,73.317,59.436,132.754,132.754,132.754
			c36.658,0,69.847-14.858,93.871-38.882v-21.396L21.734,174.02z"/>
		<path style="fill:#0071CE;" d="M154.488,41.265c-73.319,0-132.754,59.437-132.754,132.755
			c0,73.317,59.436,132.754,132.754,132.754c36.658,0,69.847-14.859,93.871-38.883l-93.871-93.871V41.265z"/>
	</g>
</g>
</svg>